<svg width="273" height="126" viewBox="0 0 273 126" fill="none" xmlns="http://www.w3.org/2000/svg">
<g opacity="0.05">
<g opacity="0.7">
<mask id="mask0_203_7239" style="mask-type:luminance" maskUnits="userSpaceOnUse" x="24" y="-24" width="106" height="25">
<path d="M129.571 -23.4987H24.0626V0.332821H129.571V-23.4987Z" fill="white"/>
</mask>
<g mask="url(#mask0_203_7239)">
<path d="M129.451 -22.4155L127.459 -20.5714C106.903 -19.6429 86.3304 -18.9723 65.8434 -17.3732C63.1301 -17.1669 60.434 -16.9219 57.7207 -16.6639C55.3509 -16.4447 54.5438 -14.4201 54.2862 -12.821C53.5993 -8.70718 55.9348 -4.37417 60.2451 -1.7821C55.7802 -1.83368 51.3325 -1.42102 46.902 -0.995457C43.5705 -0.685955 40.239 -0.273285 36.8903 -0.0669518C34.9498 0.0620079 32.5628 0.0491104 30.6566 -0.273285C26.312 -1.00835 24.8008 -3.9744 25.1614 -7.06941L24.629 -13.6721L25.6937 -16.5737L56.3641 -22.8797L94.6419 -22.3768L110.235 -23.3827C112.759 -23.2537 127.201 -22.1447 129.434 -22.4284L129.451 -22.4155Z" fill="white"/>
</g>
</g>
<g opacity="0.2">
<mask id="mask1_203_7239" style="mask-type:luminance" maskUnits="userSpaceOnUse" x="34" y="72" width="5" height="5">
<path d="M38.4874 72.4465H34.366V76.1605H38.4874V72.4465Z" fill="white"/>
</mask>
<g mask="url(#mask1_203_7239)">
<path d="M38.2815 76.0445C36.9249 74.7678 35.7572 73.6845 34.8813 72.8721C35.74 73.6587 36.9077 74.742 38.2815 76.0445Z" fill="white"/>
</g>
</g>
<g opacity="0.2">
<mask id="mask2_203_7239" style="mask-type:luminance" maskUnits="userSpaceOnUse" x="21" y="-24" width="85" height="107">
<path d="M105.667 -23.8083H21.5896V82.9696H105.667V-23.8083Z" fill="white"/>
</mask>
<g mask="url(#mask2_203_7239)">
<path d="M89.7135 -23.5632C89.7135 -23.5632 67.8355 -9.94517 104.121 -5.04474C107.728 -4.5547 98.1796 -1.70471 95.2774 0.0878124C77.727 10.9203 62.3918 24.8092 63.7484 39.8071C64.1091 45.881 65.5344 53.5928 66.8052 61.8332C71.562 70.6024 82.5868 77.3598 93.9379 82.299C85.7466 83.0856 76.8512 82.7761 67.389 81.3189C56.9652 79.7198 45.8545 76.728 34.2286 72.2789C32.6488 68.5262 30.2274 62.6973 27.8061 56.9457C26.5868 54.0312 25.3847 51.1297 24.2857 48.5376C23.7533 47.2738 23.2553 46.0874 22.8088 45.0041C22.4997 44.2691 22.2078 43.5856 21.9502 42.9537C21.9502 42.7345 21.9845 42.4507 22.0017 42.1026C22.1047 39.7168 22.1906 34.3779 22.3452 28.9617V28.9359C22.5512 22.2429 22.8947 15.4339 23.5816 13.8993C23.5816 13.8864 23.5816 13.8735 23.5816 13.8477C23.5816 13.8477 23.5816 13.8477 23.5816 13.8348C23.8392 12.7258 25.1271 6.62602 25.316 5.82648C25.3504 5.65883 25.3847 5.49118 25.4191 5.32354L25.9342 2.91201L25.8312 1.54505C25.7969 1.17107 25.7625 0.784189 25.7282 0.384417C25.7282 0.384417 25.7282 0.358627 25.7282 0.34573C25.5221 -2.16896 25.2817 -5.14791 25.0584 -7.92052C24.9382 -9.39065 24.818 -10.7834 24.7322 -12.0214L24.612 -13.6334L25.6767 -16.535L38.1097 -19.0883L56.347 -22.841C74.7046 -22.4284 70.7034 -23.5245 89.6963 -23.5374L89.7135 -23.5632Z" fill="white"/>
</g>
</g>
<g opacity="0.3">
<mask id="mask3_203_7239" style="mask-type:luminance" maskUnits="userSpaceOnUse" x="34" y="72" width="5" height="5">
<path d="M38.4874 72.4465H34.366V76.1605H38.4874V72.4465Z" fill="white"/>
</mask>
<g mask="url(#mask3_203_7239)">
<path d="M34.8813 72.8592C35.74 73.6458 36.9077 74.7291 38.2815 76.0316C36.9249 74.7549 35.7572 73.6716 34.8813 72.8592Z" fill="white"/>
</g>
</g>
<path d="M261.784 3.04096C259.568 -0.105631 256.546 -2.94272 252.837 -5.1995C251.549 -5.94746 250.141 -6.60515 248.595 -7.14677C253.867 -6.91465 258.864 -5.14792 263.26 -3.0072C264.789 -2.24635 266.317 -1.43391 267.691 -0.505403L261.784 3.02806V3.04096Z" fill="#221F50"/>
<g opacity="0.56">
<mask id="mask4_203_7239" style="mask-type:luminance" maskUnits="userSpaceOnUse" x="203" y="-9" width="14" height="11">
<path d="M216.121 -8.33319H203.757V1.88034H216.121V-8.33319Z" fill="white"/>
</mask>
<g mask="url(#mask4_203_7239)">
<path d="M210.317 -3.60042C214.456 -1.66604 209.493 3.65996 205.749 0.951823C200.649 -3.83254 209.269 -9.9065 215.984 -7.22416C212.876 -7.34022 209.75 -5.88299 208.514 -3.74227C209.115 -3.88413 209.767 -3.81965 210.317 -3.60042Z" fill="white"/>
</g>
</g>
<path d="M168.175 84.8008L153.888 106.711L149.904 101.888C156.343 98.883 161.083 94.5113 163.985 88.9016C164.226 88.4503 164.449 87.9602 164.672 87.4702L165.033 86.6706L165.926 86.1548C166.698 85.6906 167.506 85.2134 168.295 84.6976L168.587 84.4655L168.742 84.401C175.474 79.9777 181.038 74.5356 185.279 68.2038C188.267 63.7547 190.62 58.8027 192.269 53.5154C193.299 50.214 194.072 46.7192 194.57 43.1342C194.638 42.6442 194.69 42.1928 194.759 41.7156C195.737 33.3075 195.274 24.1386 193.368 14.4538C192.904 12.0552 192.337 9.60494 191.702 7.15472L191.616 6.85812C191.564 6.69047 191.53 6.52282 191.479 6.34228C191.084 4.88505 190.654 3.38913 190.191 1.86742L197.558 0.603622C198.039 2.17692 198.485 3.72442 198.88 5.20745C198.931 5.37509 198.983 5.56853 199.035 5.76197L199.12 6.05857C199.79 8.61196 200.374 11.1524 200.855 13.6413C202.847 23.7646 203.328 33.372 202.297 42.2186C202.229 42.7344 202.177 43.2374 202.108 43.7403C201.593 47.5446 200.769 51.2715 199.653 54.805C197.867 60.5307 195.308 65.8954 192.062 70.7571C187.34 77.8112 181.089 83.898 173.516 88.8243L173.447 88.863L173.069 89.108C172.554 89.4433 172.022 89.7657 171.507 90.0881C171.369 90.3847 171.215 90.6684 171.077 90.9521C167.574 97.7353 161.804 103.036 153.939 106.698L168.175 84.8008Z" fill="#221F50"/>
<path d="M123.973 109.883C128.816 109.29 133.555 108.387 137.986 107.085C142.399 105.782 146.486 104.054 149.904 101.901L153.888 106.724C144.408 110.038 134.036 110.618 123.973 109.896V109.883Z" fill="#221F50"/>
<path d="M113.326 -7.53367C135.341 -7.53367 164.93 -6.55359 189.967 -2.33664C190.036 -5.8959 190.568 -10.5513 192.217 -14.5232C152.84 -22.9442 67.6295 -22.9442 28.2698 -14.5232C29.9012 -10.5771 30.4335 -5.97327 30.5194 -2.42691C42.8837 -4.52893 67.3032 -6.68254 96.531 -7.34023C101.305 -7.4434 107.006 -7.53367 113.326 -7.53367ZM22.4654 5.28482L22.8604 1.06787C23.118 -1.70474 23.0664 -8.24294 20.9199 -13.1563C20.3188 -14.5361 20.4905 -15.9934 21.3835 -17.2701C22.2765 -18.5467 23.7877 -19.4623 25.6423 -19.875C44.9444 -24.092 75.7693 -26.5035 110.2 -26.5035H110.235C144.666 -26.5035 175.474 -24.092 194.793 -19.875C196.648 -19.4752 198.159 -18.5467 199.069 -17.2701C199.979 -15.9805 200.134 -14.5103 199.55 -13.1305C197.438 -8.23005 197.369 -1.70474 197.626 1.06787L198.004 4.98822L192.938 4.02103C169.154 -0.505423 134.998 -2.53007 96.7714 -1.67895C63.8515 -0.943882 36.6843 1.77715 27.8233 3.95655L22.4654 5.27193V5.28482Z" fill="#221F50"/>
<path d="M136.99 134.192H109.582V128.518H134.105L148.221 119.078V104.415H155.777V121.618L136.99 134.192Z" fill="#221F50"/>
<path d="M204.955 90.5717C200.954 90.5717 196.97 89.6948 193.415 87.9151C185.001 83.6853 181.961 76.0896 185.688 68.5584L192.78 70.5315C189.792 76.5797 193.518 81.1319 197.64 83.1952C201.71 85.2328 208.596 86.1226 214.675 81.9185C215.963 80.9771 216.787 79.9713 217.268 79.0944C209.455 78.888 206.484 75.6383 205.488 74.065C202.912 69.9512 205.213 64.5736 211.361 60.3309C214.383 58.0354 220.462 53.9603 227.64 52.1291C250.755 46.2357 259.513 35.3387 262.793 27.2272C267.395 15.853 263.617 4.74967 259.616 0.842216C257.607 -1.13085 257.126 -3.82609 258.362 -6.18603C261.058 -11.3573 260.286 -15.3292 255.649 -18.8756C255.34 -16.3738 254.31 -13.7043 251.871 -11.9247C249.639 -10.2869 246.565 -9.65502 243.216 -10.158H243.147C225.923 -12.9951 212.219 -11.3702 200.199 -5.0383C200.422 -1.05347 200.817 3.02162 201.212 6.98065C201.401 8.90214 201.59 10.8236 201.744 12.7451V12.887V13.0288C201.744 13.2094 201.744 13.3641 201.744 13.4802C201.796 13.506 201.83 13.5318 201.881 13.5575C202.122 13.6994 202.414 13.8671 202.723 14.0605C203.994 14.8471 210.176 16.098 214.916 14.1379C220.445 11.8553 220.754 6.11663 220.033 1.70624L219.655 -0.615015L222.626 -1.33718C235.763 -4.53536 242.958 -1.80143 246.685 1.04855C254.241 6.8388 253.211 16.975 249.742 24.5319C245.26 34.3844 235.403 38.0081 224.979 41.8253C215.86 45.1782 206.432 48.6343 199.1 56.8232L192.831 53.6637C201.28 44.211 212.116 40.2391 221.664 36.7314C231.418 33.1464 239.129 30.3222 242.598 22.6878C245.998 15.3114 245.466 8.21866 241.293 5.02048C237.961 2.4671 232.569 2.60895 227.829 3.46008C228.499 12.8999 223.261 17.1813 218.556 19.1286C211.292 22.1204 201.641 20.7534 197.915 18.4451C197.64 18.2774 197.399 18.1356 197.176 18.0066C194.686 16.5236 194.102 15.5693 194.188 12.9901C194.034 11.1331 193.845 9.26322 193.656 7.39332C193.226 2.89266 192.78 -1.76275 192.557 -6.32789L192.488 -7.79801L194.051 -8.68783C208.321 -16.7993 224.429 -19.0303 244.71 -15.7032C245.981 -15.5226 246.376 -15.8063 246.582 -15.9611C247.956 -16.967 248.591 -20.0878 247.956 -22.783C247.612 -24.1758 248.419 -25.5814 249.999 -26.3681C251.596 -27.1547 253.657 -27.1547 255.237 -26.3681C266.674 -20.6294 270.091 -13.1369 265.369 -4.0969C265.094 -3.56817 265.18 -3.00075 265.592 -2.60098C268.597 0.339277 270.881 5.08496 271.877 10.4367C272.684 14.744 273.011 21.4498 270.005 28.8907C266.21 38.266 256.216 50.8395 230.045 57.5067C225.786 58.5899 221.029 61.0272 216.65 64.3673L216.495 64.4704C212.305 67.3333 211.378 70.1962 212.288 71.6534C213.215 73.1365 216.41 73.7426 220.823 73.2654L224.051 72.9172L224.962 75.2772C226.232 78.5398 224.172 82.8471 219.844 86.0065L219.775 86.0581C215.482 89.0371 210.193 90.5717 204.921 90.5717H204.955Z" fill="#221F50"/>
<path d="M66.6163 106.724C58.7512 103.061 52.9812 97.7611 49.478 90.9779C49.3234 90.6942 49.186 90.4105 49.0486 90.1139C48.5335 89.8044 48.0183 89.482 47.5031 89.1467L47.3657 89.0951L47.0395 88.8501C39.4663 83.9239 33.2155 77.8499 28.493 70.783C25.2474 65.9341 22.6886 60.5694 20.9027 54.8437C19.8036 51.3102 18.9793 47.5704 18.447 43.7532C18.3783 43.2761 18.3096 42.7602 18.2581 42.2573C17.2277 33.4107 17.7086 23.8033 19.7006 13.6801C20.1814 11.1912 20.7653 8.65067 21.435 6.11018L21.5209 5.81358C21.5724 5.62014 21.6239 5.4267 21.6755 5.23326C22.0704 3.77603 22.5169 2.22852 22.9977 0.655228L30.3648 1.91902C29.9011 3.44073 29.4718 4.93666 29.094 6.3681C29.0425 6.56154 28.991 6.74208 28.9567 6.90973L28.8708 7.21923C28.2354 9.65655 27.6687 12.1068 27.205 14.5054C25.2989 24.1902 24.8352 33.3592 25.8141 41.7673C25.8656 42.2315 25.9343 42.6958 26.003 43.16C26.501 46.7709 27.2737 50.2656 28.3041 53.567C29.9527 58.8672 32.3053 63.8063 35.2934 68.2554C39.5865 74.6775 45.2535 80.1841 52.1226 84.6331C52.1397 84.646 52.1569 84.6589 52.1912 84.6718L52.2428 84.7105C53.0499 85.2263 53.857 85.7293 54.6469 86.1935L55.5399 86.7094L55.9005 87.5089C56.1238 87.999 56.347 88.4761 56.5874 88.9404C59.4896 94.5501 64.2293 98.9089 70.669 101.914L66.685 106.737L66.6163 106.724Z" fill="#221F50"/>
<path d="M97.1148 109.896C86.8456 110.67 76.2672 110.115 66.599 106.711L70.5831 101.888C74.0691 104.067 78.2592 105.821 82.7756 107.124C87.292 108.439 92.1519 109.329 97.0976 109.883L97.1148 109.896Z" fill="#221F50"/>
<path d="M110.252 99.6439C84.39 99.6439 61.9626 96.3297 50.2336 90.7974L54.252 85.9872C76.7482 96.6134 143.739 96.6134 166.252 85.9872L170.27 90.7974C158.542 96.3426 136.114 99.6439 110.252 99.6439Z" fill="#221F50"/>
<path d="M110.922 134.192H83.514L64.7272 121.618V104.415H72.2831V119.078L86.399 128.518H110.922V134.192Z" fill="#221F50"/>
<path d="M15.2529 89.7012C14.2569 89.7012 13.2609 89.6496 12.2649 89.5335C8.19495 89.0564 4.29676 87.5992 0.999611 85.3037L0.896576 85.2263C-1.83388 83.2275 -3.74004 80.6483 -4.34108 78.1465C-4.61584 76.9859 -4.59867 75.9026 -4.30674 74.9096C-4.27239 74.7936 -4.23805 74.6904 -4.2037 74.5743L-3.3279 72.1628L-0.0307503 72.511C1.53196 72.6786 2.9573 72.7044 4.19373 72.6013H4.24525C4.41697 72.5884 4.5887 72.5626 4.7776 72.5497C4.84628 72.5497 4.8978 72.5368 4.9665 72.5239C6.06554 72.3691 7.49088 72.021 8.2293 71.2214C9.22532 70.1511 8.71012 68.6809 8.31516 67.8943C7.62825 66.5015 6.27162 65.0959 4.38263 63.7805L4.31394 63.7418L4.12504 63.5999C3.97049 63.4839 3.8331 63.3678 3.67855 63.2646L3.55834 63.1744C-0.648964 60.0665 -5.19972 57.7839 -9.25246 56.7393C-25.2574 52.6643 -37.0206 45.9326 -44.1816 36.7508C-51.3255 27.6076 -52.0811 18.4128 -51.4628 12.3131C-50.982 7.63188 -49.5052 3.15701 -47.2727 -0.311974C-46.7232 -1.15021 -46.1393 -1.92396 -45.5383 -2.59454C-45.2807 -2.87825 -45.0403 -3.12327 -44.817 -3.3683C-44.3877 -3.78096 -44.319 -4.36127 -44.5766 -4.87711C-45.2807 -6.23118 -45.813 -7.55945 -46.1565 -8.82325C-46.4828 -10.0226 -46.6373 -11.2219 -46.6373 -12.3696C-46.6373 -12.5373 -46.6373 -12.7178 -46.6373 -12.8854V-13.066C-46.6373 -13.2078 -46.603 -13.3497 -46.603 -13.4916C-46.603 -13.5689 -46.603 -13.6463 -46.5686 -13.7237C-46.5515 -13.8913 -46.5343 -14.059 -46.4999 -14.2266C-46.4656 -14.3943 -46.4484 -14.5877 -46.3969 -14.7553C-46.3969 -14.794 -46.3797 -14.8456 -46.3626 -14.8843C-46.3282 -15.0391 -46.2939 -15.1938 -46.2595 -15.3486V-15.4388C-46.2595 -15.4388 -46.2252 -15.4646 -46.2252 -15.4775C-46.1908 -15.6065 -46.1565 -15.7225 -46.1221 -15.8515C-46.105 -15.9289 -46.0706 -16.0062 -46.0535 -16.0836C-46.0019 -16.2642 -45.9332 -16.4318 -45.8646 -16.6124C-45.7959 -16.78 -45.7272 -16.9476 -45.6585 -17.1153C-45.5898 -17.2958 -45.5039 -17.4764 -45.4181 -17.644C-45.3494 -17.7859 -45.2635 -17.9406 -45.1948 -18.0825L-44.9201 -18.6112L-44.8685 -18.6499C-44.8685 -18.6499 -44.7999 -18.7531 -44.7655 -18.8047C-44.6968 -18.9207 -44.6109 -19.0368 -44.5423 -19.1657C-44.4564 -19.2947 -44.3877 -19.4108 -44.3018 -19.5268C-44.216 -19.6429 -44.1473 -19.7589 -44.0443 -19.875C-43.8725 -20.1071 -43.6665 -20.3522 -43.4604 -20.6101C-43.3917 -20.7003 -43.3058 -20.7906 -43.22 -20.8938C-42.8422 -21.3193 -42.4472 -21.732 -42.0179 -22.1189C-41.8977 -22.2478 -41.7603 -22.3639 -41.6057 -22.4929C-41.5027 -22.5831 -41.3997 -22.6734 -41.2966 -22.7637C-41.1936 -22.854 -41.1077 -22.9313 -41.0047 -23.0216L-38.7207 -24.7239C-38.3945 -24.9431 -38.051 -25.1623 -37.6732 -25.3944C-37.5358 -25.4718 -37.3984 -25.5621 -37.2611 -25.6524L-37.0206 -25.7942C-36.6772 -26.0005 -36.3337 -26.194 -35.9731 -26.3874C-35.8014 -26.4777 -35.6125 -26.5809 -35.4236 -26.684C-35.1145 -26.8517 -34.7882 -27.0193 -34.4447 -27.187C-32.8992 -27.9607 -30.9587 -27.9994 -29.3788 -27.2772C-27.7989 -26.5551 -26.9231 -25.2655 -27.0948 -23.8985V-23.7567C-27.0948 -23.7567 -27.1292 -23.6664 -27.1464 -23.6148L-27.2151 -23.3311C-27.3009 -22.9313 -27.3524 -22.48 -27.3868 -21.9899V-21.8352C-27.3868 -21.5773 -27.404 -21.3322 -27.3868 -21.113C-27.3868 -20.9712 -27.3868 -20.8164 -27.3524 -20.6488V-20.6101C-27.2666 -19.6171 -27.0433 -18.7144 -26.6999 -17.9922L-26.6312 -17.8504C-26.3392 -17.3087 -25.9958 -16.8961 -25.6352 -16.6768L-25.5665 -16.6381C-25.3948 -16.5479 -25.2059 -16.4834 -24.9654 -16.4576H-24.8796H-24.8967C-24.6048 -16.4318 -24.2614 -16.4576 -23.8836 -16.5092C-22.4067 -16.7413 -21.0844 -16.9476 -19.8136 -17.1024C-19.7278 -17.1153 -19.6419 -17.1282 -19.5561 -17.1411H-19.5045C-19.4187 -17.1669 -19.35 -17.1669 -19.2641 -17.1798C-13.5971 -17.889 -8.41101 -18.1212 -3.37942 -17.9019H-2.62382L-2.50361 -17.8504C0.14098 -17.7085 2.75122 -17.4248 5.29278 -17.0121C6.27162 -16.8574 7.2848 -16.6639 8.31516 -16.4447C9.22531 -16.2513 10.0668 -16.0578 10.8911 -15.8515C15.4762 -14.6909 19.941 -13.0273 24.1483 -10.8866C24.9726 -10.4739 25.8141 -10.0097 26.7414 -9.49383L28.3213 -8.60402L28.2526 -7.13389C28.2183 -6.39882 28.1839 -5.66376 28.1324 -4.9287C28.1152 -4.54182 28.0809 -4.14205 28.0637 -3.75517C27.8233 -0.337767 27.497 3.13122 27.1707 6.49705C26.999 8.27668 26.8273 10.0563 26.6727 11.8359V11.9004C26.6555 11.9778 26.6556 12.0681 26.6384 12.1454V12.1712C26.6384 12.3776 26.6384 12.571 26.6384 12.7515C26.6556 15.2275 25.4706 16.1174 23.6332 17.2135C23.4271 17.3296 23.2038 17.4714 22.9463 17.6262L22.723 17.768C21.6755 18.3741 20.3017 18.89 18.6359 19.2897C16.7813 19.7411 10.2213 21.0178 3.60985 18.8255C0.106632 17.6649 -2.58947 15.7821 -4.40977 13.2416C-6.23008 10.6882 -7.12305 7.51582 -7.05437 3.80181C-7.05437 3.42783 -7.02002 3.05385 -7.00285 2.66697C-7.43217 2.5896 -7.86148 2.52512 -8.27362 2.46064C-9.21812 2.31878 -10.1454 2.22851 -11.0041 2.16403C-16.4306 1.81584 -20.0712 3.06674 -22.132 5.95542L-22.2178 6.07148C-22.4411 6.40678 -22.6471 6.74207 -22.8189 7.10315C-24.7079 10.8559 -24.2957 16.3624 -21.7713 21.8689C-21.6855 22.0495 -21.5996 22.23 -21.5137 22.4105V22.4363C-20.8097 23.8291 -19.9338 25.1058 -18.9035 26.2535C-15.7266 29.787 -11.1071 32.0309 -5.16537 34.3134C-3.77438 34.8551 -2.34906 35.3709 -0.837868 35.9254C3.6442 37.5632 8.28082 39.2654 12.9003 41.5996C18.8935 44.6172 23.719 48.1765 27.6516 52.4708C27.7546 52.574 27.8405 52.6772 27.9435 52.7803C27.995 52.8319 28.0465 52.8964 28.0981 52.9738L21.6411 55.9269C21.7098 56.0043 21.7785 56.0946 21.8644 56.1719L21.7442 56.0559L21.6411 55.9269C21.6411 55.9269 21.5381 55.798 21.4694 55.7464L21.4351 55.7077C18.0005 51.955 13.9478 48.976 8.69296 46.3195C4.50283 44.2046 0.0894623 42.5926 -4.15218 41.0322C-5.61186 40.4906 -7.14022 39.936 -8.5999 39.3815C-14.6447 37.0603 -20.8268 34.249 -25.1543 29.4517C-26.511 27.9429 -27.6615 26.2535 -28.5717 24.4481C-28.6919 24.216 -28.7949 23.9838 -28.9151 23.7517C-32.0577 16.9298 -32.4184 10.1466 -29.894 5.14298C-29.7051 4.7561 -29.4818 4.36922 -29.2414 3.98235V3.50521L-28.5202 2.93779C-24.9654 -1.73052 -18.56 -4.00019 -10.3687 -3.48436C-9.23529 -3.40698 -8.03321 -3.29092 -6.81395 -3.11038C-5.19972 -2.87825 -3.5168 -2.54296 -1.79953 -2.1174L0.810711 -1.4855V1.26132L0.707672 1.42897C0.587467 2.2672 0.518776 3.09254 0.501602 3.89208C0.450085 6.626 1.03396 8.85699 2.23605 10.5463C3.24923 11.9649 4.74326 12.9966 6.64942 13.6414C9.96374 14.7375 13.9306 14.4667 16.3176 13.8864C17.3308 13.6414 17.8975 13.3963 18.0864 13.2803C18.1207 13.2545 18.1723 13.2287 18.2238 13.19C18.4814 13.0352 18.7218 12.8934 18.9279 12.7644C18.9794 12.7386 19.0137 12.7129 19.0652 12.6742C19.0652 12.5323 19.0652 12.3905 19.0652 12.2228V12.0681L19.0824 11.7715C19.0824 11.6554 19.0996 11.5393 19.1168 11.4233C19.2713 9.64364 19.443 7.86401 19.6148 6.07148C19.941 2.74435 20.2673 -0.698851 20.4906 -4.06467C20.5249 -4.43865 20.5421 -4.82553 20.5593 -5.19951C20.5593 -5.41874 20.5936 -5.63797 20.5936 -5.8443C20.3532 -5.97326 20.13 -6.08932 19.8895 -6.20539C16.2318 -8.06239 12.3851 -9.50673 8.43538 -10.4997C7.7313 -10.6803 7.01004 -10.8479 6.25444 -11.0026C5.37864 -11.1832 4.50283 -11.3508 3.67855 -11.4798C1.29155 -11.8667 -1.19849 -12.1246 -3.7057 -12.2407L-4.25522 -12.2664C-8.5999 -12.4341 -13.1507 -12.202 -18.0964 -11.583L-18.5257 -11.5314C-19.7106 -11.3766 -20.947 -11.1961 -22.3552 -10.9769H-22.4239C-23.5745 -10.7963 -24.6907 -10.7576 -25.7554 -10.835C-25.8756 -10.835 -26.013 -10.8608 -26.1332 -10.8737C-27.3524 -11.0155 -28.4858 -11.325 -29.5162 -11.8022L-30.3748 -12.2535C-31.6799 -13.0402 -32.7446 -14.1106 -33.5002 -15.4259L-34.0669 -16.5608C-34.4619 -17.5022 -34.7367 -18.5338 -34.8741 -19.6429C-35.0458 -19.501 -35.2519 -19.3592 -35.4408 -19.1915L-35.664 -19.011C-35.664 -19.011 -35.7842 -18.8949 -35.8529 -18.8433L-35.8872 -18.8047C-35.9559 -18.7402 -36.0418 -18.6757 -36.1105 -18.6112L-36.1448 -18.5725C-36.4368 -18.3017 -36.7115 -18.018 -36.952 -17.7343L-37.0035 -17.6698C-37.0035 -17.6698 -37.0722 -17.5924 -37.1065 -17.5538C-37.2439 -17.3861 -37.3641 -17.2442 -37.4671 -17.1024L-37.5015 -17.0508C-37.5015 -17.0508 -37.5873 -16.9476 -37.6217 -16.8832L-37.656 -16.8187C-37.656 -16.8187 -37.7419 -16.6897 -37.7934 -16.6252C-37.8278 -16.5608 -37.8621 -16.5092 -37.8964 -16.4576L-37.948 -16.3802C-37.948 -16.3802 -37.9823 -16.3157 -38.0167 -16.29L-38.1369 -16.0707C-38.1369 -16.0707 -38.1712 -16.0191 -38.1884 -15.9805L-38.3086 -15.7483C-38.3086 -15.7483 -38.3086 -15.7225 -38.3258 -15.7096V-15.671C-38.3945 -15.5678 -38.446 -15.4517 -38.4975 -15.3357C-38.5318 -15.2454 -38.5834 -15.1551 -38.6177 -15.0648V-15.0391C-38.6692 -14.9359 -38.7036 -14.8198 -38.7379 -14.7167L-38.7894 -14.5748C-38.8238 -14.4974 -38.8409 -14.4072 -38.8581 -14.3169V-14.2911C-38.8581 -14.2911 -38.8753 -14.2524 -38.8753 -14.2395C-38.8925 -14.1621 -38.9096 -14.0719 -38.9268 -13.9945L-38.9611 -13.8655C-38.9783 -13.7753 -38.9955 -13.6721 -39.0127 -13.5818C-39.0298 -13.4658 -39.047 -13.3497 -39.0642 -13.2465V-13.1434C-39.0814 -13.0402 -39.0985 -12.9499 -39.0985 -12.8726V-12.7307C-39.0985 -12.6275 -39.0985 -12.5115 -39.0985 -12.3954C-39.0985 -11.6088 -38.9783 -10.7963 -38.7551 -9.95808C-38.4975 -9.01669 -38.1025 -8.01081 -37.553 -6.96624C-36.3166 -4.6063 -36.7974 -1.91106 -38.8066 0.0620079C-38.9611 0.203861 -39.1157 0.384403 -39.2874 0.564945C-39.6824 1.0163 -40.0945 1.55793 -40.4895 2.16403C-42.3098 5.00113 -43.5462 8.75382 -43.9412 12.7386C-44.6281 19.4058 -43.9412 41.8833 -6.83112 51.3489C-0.305511 53.0124 5.25843 56.4556 8.796 59.0735C8.84752 59.1122 8.89902 59.138 8.93337 59.1767C9.07076 59.2798 9.22531 59.383 9.36269 59.4991L9.44856 59.5635C12.2134 61.4721 14.2741 63.6644 15.3731 65.8825C16.953 69.0033 16.5924 72.137 14.3943 74.4712C12.6427 76.3411 9.84352 77.592 6.30596 78.0949L6.11706 78.1207C6.11706 78.1207 6.06554 78.1207 6.04837 78.1207L5.8423 78.1465C5.55037 78.1852 5.2756 78.211 4.98367 78.2239C4.50283 78.2626 4.022 78.2883 3.524 78.3012C4.07352 79.2942 4.98367 80.3001 6.13424 81.1383C8.34951 82.66 10.788 83.5885 13.3811 83.898C15.5449 84.156 17.7945 83.9496 19.8895 83.3177C25.7454 81.5381 30.3133 76.354 27.7031 69.9189L27.6344 69.7513C27.5485 69.5449 27.4455 69.3257 27.3253 69.0807L34.4176 67.1205C34.6237 67.5332 34.7954 67.9072 34.9328 68.2683L35.0873 68.6809C36.6672 72.8979 36.2035 77.089 33.7822 80.803C31.4639 84.3494 27.5314 87.1091 22.723 88.5792C20.3188 89.3143 17.7601 89.6883 15.2186 89.6883L15.2529 89.7012Z" fill="#221F50"/>
<g opacity="0.2">
<mask id="mask5_203_7239" style="mask-type:luminance" maskUnits="userSpaceOnUse" x="28" y="-6" width="77" height="10">
<path d="M104.431 -5.2382H28.5962V3.73732H104.431V-5.2382Z" fill="white"/>
</mask>
<g mask="url(#mask5_203_7239)">
<path d="M104.121 -5.05767C101.151 -3.44568 98.1797 -1.71764 95.2775 0.0748878C89.5762 -0.0540709 83.5486 -0.118549 77.4523 -0.0798616C60.1938 0.0233054 42.2655 0.900224 29.0426 3.32465C46.2839 -1.54999 66.3931 -3.93573 87.2751 -4.74817C92.8562 -4.9674 98.4888 -5.07056 104.139 -5.07056L104.121 -5.05767Z" fill="#221F50"/>
</g>
</g>
<path d="M194.535 5.47827L183.871 4.12421C183.871 4.12421 197.867 58.6608 160.808 79.9132C156.463 82.4021 151.947 84.6718 146.933 86.0001C151.689 84.1947 155.948 81.7702 159.383 78.83C179.973 61.0724 175.748 25.1961 169.669 3.63416C166.252 2.03508 154.265 -0.918077 154.265 -0.918077L183.15 -2.15608L194.535 5.49117V5.47827Z" fill="#221F50"/>
<path d="M240.369 96.9229C234.668 97.4387 229.533 94.6661 229.533 94.6661C229.533 94.6661 233.637 91.0424 239.339 90.5265C241.708 90.3073 243.958 90.6555 245.796 91.1455C248.165 91.7645 248.543 94.1374 246.448 95.1691C244.817 95.9686 242.722 96.7166 240.369 96.9358V96.9229Z" fill="#221F50"/>
<path d="M151.535 125.861C165.119 99.3473 232.779 108.245 238.377 81.0223C239.133 77.218 238.532 73.3234 237.433 69.5707C238.171 71.4278 238.789 73.3106 239.167 75.2449C242.636 91.9064 225.326 99.4505 207.518 104.957C193.866 109.38 178.462 112.45 167.231 119.89C163.831 122.25 161.323 125.036 160.07 128.118L151.518 125.848L151.535 125.861Z" fill="#221F50"/>
<path d="M195.841 119.607C187.083 118.188 181.398 112.14 181.398 112.14C181.398 112.14 189.899 108.374 198.64 109.793C202.263 110.373 205.354 111.753 207.741 113.172C210.798 114.99 209.768 118.627 205.972 119.336C203.019 119.89 199.447 120.187 195.823 119.607H195.841Z" fill="#221F50"/>
<path d="M221.428 110.193C213.116 109.522 207.037 104.325 207.037 104.325C207.037 104.325 214.438 100.198 222.75 100.869C226.185 101.14 229.241 102.197 231.645 103.332C234.736 104.802 234.238 108.245 230.821 109.187C228.159 109.922 224.862 110.464 221.428 110.193Z" fill="#221F50"/>
<path d="M221.805 88.115C220.586 92.3319 223.78 96.4328 223.78 96.4328C223.78 96.4328 228.966 93.6989 230.186 89.482C230.684 87.741 230.443 86.013 229.98 84.5944C229.379 82.7632 226.27 82.2603 224.708 83.7304C223.488 84.8781 222.303 86.3741 221.805 88.115Z" fill="#221F50"/>
<path d="M196.905 96.3039C193.986 101.694 196.991 107.717 196.991 107.717C196.991 107.717 204.719 104.97 207.638 99.5794C208.84 97.3484 209.029 95.0143 208.858 93.0283C208.617 90.5007 204.633 89.2885 202.109 90.9779C200.151 92.2932 198.107 94.0729 196.905 96.3039Z" fill="#221F50"/>
<path d="M167.025 104.093C166.509 109.69 171.644 114.513 171.644 114.513C171.644 114.513 177.62 110.27 178.135 104.673C178.359 102.365 177.603 100.173 176.641 98.4188C175.405 96.1491 171.283 95.9428 169.652 98.0577C168.381 99.7084 167.231 101.785 167.007 104.106L167.025 104.093Z" fill="#221F50"/>
<path d="M68.9688 125.861C55.3853 99.3473 -12.275 108.245 -17.8733 81.0223C-18.6289 77.218 -18.0278 73.3234 -16.9288 69.5707C-17.6672 71.4278 -18.2854 73.3106 -18.6632 75.2449C-22.1321 91.9064 -4.82205 99.4505 12.986 104.957C26.6382 109.38 42.0421 112.45 53.273 119.89C56.6732 122.25 59.1804 125.036 60.434 128.118L68.986 125.848L68.9688 125.861Z" fill="#221F50"/>
<path d="M24.6636 119.607C33.4216 118.188 39.1058 112.14 39.1058 112.14C39.1058 112.14 30.6053 108.374 21.8645 109.793C18.241 110.373 15.1499 111.753 12.7629 113.172C9.70622 114.99 10.7366 118.627 14.5317 119.336C17.4854 119.89 21.0573 120.187 24.6808 119.607H24.6636Z" fill="#221F50"/>
<path d="M-0.923604 110.193C7.38796 109.522 13.4671 104.325 13.4671 104.325C13.4671 104.325 6.06566 100.198 -2.2459 100.869C-5.68043 101.14 -8.73716 102.197 -11.1413 103.332C-14.2324 104.802 -13.7344 108.245 -10.317 109.187C-7.65528 109.922 -4.35813 110.464 -0.923604 110.193Z" fill="#221F50"/>
<path d="M23.5989 96.3039C26.5182 101.694 23.513 107.717 23.513 107.717C23.513 107.717 15.7853 104.97 12.866 99.5794C11.6639 97.3484 11.475 95.0143 11.6467 93.0283C11.8871 90.5007 15.8712 89.2885 18.3956 90.9779C20.3532 92.2932 22.3968 94.0729 23.5989 96.3039Z" fill="#221F50"/>
<path d="M53.4792 104.093C53.9944 109.69 48.8598 114.513 48.8598 114.513C48.8598 114.513 42.8837 110.27 42.3685 104.673C42.1453 102.365 42.9009 100.173 43.8625 98.4188C45.099 96.1491 49.2204 95.9428 50.8518 98.0577C52.1226 99.7084 53.2732 101.785 53.4964 104.106L53.4792 104.093Z" fill="#221F50"/>
</g>
</svg>
