<svg width="22" height="22" viewBox="0 0 22 22" fill="none" xmlns="http://www.w3.org/2000/svg">
<path d="M20.801 5.4245C20.4902 4.71961 20.0823 4.06172 19.589 3.47L16.9745 6.0845C17.5866 6.44672 18.3076 6.57923 19.0084 6.4583C19.7093 6.33737 20.3442 5.97089 20.7995 5.4245M15.9125 5.024L18.527 2.4095C17.9357 1.91635 17.2784 1.50839 16.574 1.1975C16.0272 1.65285 15.6605 2.28805 15.5396 2.98925C15.4186 3.69044 15.5514 4.41179 15.914 5.024M14 3.5C14 4.472 14.309 5.372 14.8325 6.107L13.625 7.3145L8.393 2.081C9.33317 1.39798 10.4066 0.920511 11.5434 0.67965C12.6803 0.438789 13.8551 0.439931 14.9915 0.683C14.35 1.48176 14.0002 2.47551 14 3.5ZM14.6855 8.375L15.893 7.1675C16.628 7.6925 17.528 8 18.5 8C19.5243 8.00023 20.518 7.65099 21.317 7.01C21.438 7.572 21.499 8.152 21.5 8.75C21.5 10.565 20.9135 12.245 19.919 13.6085L14.6855 8.375ZM18.926 14.7365L13.625 9.4355L12.7175 10.343C14.2775 12.1212 15.2347 14.3475 15.452 16.703C16.772 16.3385 17.96 15.6515 18.926 14.7365ZM5.2955 6.548C5.66 5.228 6.3455 4.04 7.2605 3.074L12.5645 8.375L11.657 9.2825C9.87879 7.72252 7.65099 6.76532 5.2955 6.548ZM2.75 8C2.15326 8 1.58097 8.23705 1.15901 8.65901C0.737053 9.08097 0.5 9.65326 0.5 10.25V11.75C0.5 14.3359 1.52723 16.8158 3.35571 18.6443C5.18419 20.4728 7.66414 21.5 10.25 21.5H11.75C12.3467 21.5 12.919 21.2629 13.341 20.841C13.7629 20.419 14 19.8467 14 19.25V17.75C14 15.1641 12.9728 12.6842 11.1443 10.8557C9.31581 9.02723 6.83586 8 4.25 8H2.75ZM5.594 13.094C5.66367 13.0242 5.74643 12.9687 5.83755 12.9309C5.92867 12.8931 6.02635 12.8737 6.125 12.8737C6.22365 12.8737 6.32133 12.8931 6.41245 12.9309C6.50357 12.9687 6.58633 13.0242 6.656 13.094L8.906 15.344C8.97573 15.4137 9.03105 15.4965 9.06878 15.5876C9.10652 15.6787 9.12595 15.7764 9.12595 15.875C9.12595 15.9736 9.10652 16.0713 9.06878 16.1624C9.03105 16.2535 8.97573 16.3363 8.906 16.406C8.83627 16.4757 8.75348 16.531 8.66238 16.5688C8.57127 16.6065 8.47362 16.6259 8.375 16.6259C8.27638 16.6259 8.17873 16.6065 8.08762 16.5688C7.99652 16.531 7.91373 16.4757 7.844 16.406L5.594 14.156C5.52416 14.0863 5.46874 14.0036 5.43093 13.9125C5.39312 13.8213 5.37366 13.7237 5.37366 13.625C5.37366 13.5263 5.39312 13.4287 5.43093 13.3376C5.46874 13.2464 5.52416 13.1637 5.594 13.094Z" fill="white"/>
</svg>
