<svg width="40" height="40" viewBox="0 0 40 40" fill="none" xmlns="http://www.w3.org/2000/svg">
    <g clip-path="url(#clip0_224_10108)">
        <path d="M20 3.33325C29.205 3.33325 36.6667 10.7949 36.6667 19.9999C36.6667 29.2049 29.205 36.6666 20 36.6666C10.795 36.6666 3.33334 29.2049 3.33334 19.9999C3.33334 10.7949 10.795 3.33325 20 3.33325ZM20 26.6666C19.558 26.6666 19.1341 26.8422 18.8215 27.1547C18.5089 27.4673 18.3333 27.8912 18.3333 28.3333C18.3333 28.7753 18.5089 29.1992 18.8215 29.5118C19.1341 29.8243 19.558 29.9999 20 29.9999C20.442 29.9999 20.866 29.8243 21.1785 29.5118C21.4911 29.1992 21.6667 28.7753 21.6667 28.3333C21.6667 27.8912 21.4911 27.4673 21.1785 27.1547C20.866 26.8422 20.442 26.6666 20 26.6666ZM20 10.8333C18.3977 10.8333 16.8609 11.4698 15.7279 12.6028C14.5949 13.7358 13.9583 15.2726 13.9583 16.8749C13.9583 17.3169 14.1339 17.7409 14.4465 18.0534C14.7591 18.366 15.183 18.5416 15.625 18.5416C16.067 18.5416 16.491 18.366 16.8035 18.0534C17.1161 17.7409 17.2917 17.3169 17.2917 16.8749C17.2922 16.3833 17.4266 15.9011 17.6803 15.4801C17.934 15.059 18.2976 14.7149 18.732 14.4848C19.1664 14.2546 19.6553 14.147 20.1462 14.1736C20.637 14.2001 21.1115 14.3597 21.5185 14.6354C21.9256 14.911 22.25 15.2922 22.4568 15.7382C22.6637 16.1842 22.7453 16.678 22.6929 17.1668C22.6405 17.6556 22.456 18.1209 22.1592 18.5129C21.8624 18.9048 21.4646 19.2086 21.0083 19.3916C19.8817 19.8416 18.3333 20.9949 18.3333 22.9166V23.3333C18.3333 23.7753 18.5089 24.1992 18.8215 24.5118C19.1341 24.8243 19.558 24.9999 20 24.9999C20.442 24.9999 20.866 24.8243 21.1785 24.5118C21.4911 24.1992 21.6667 23.7753 21.6667 23.3333C21.6667 22.9266 21.75 22.7233 22.1017 22.5499L22.2467 22.4833C23.548 21.9597 24.6267 20.9998 25.2979 19.7681C25.969 18.5364 26.1908 17.1096 25.9252 15.7322C25.6596 14.3549 24.9231 13.1129 23.8421 12.219C22.761 11.3252 21.4027 10.8353 20 10.8333Z" fill="#221F50"/>
    </g>
    <defs>
        <clipPath id="clip0_224_10108">
            <rect width="40" height="40" fill="white"/>
        </clipPath>
    </defs>
</svg>
