<svg width="21" height="21" viewBox="0 0 21 21" fill="none" xmlns="http://www.w3.org/2000/svg">
<path d="M11.2095 0.75225C10.7145 -0.25075 9.28347 -0.25075 8.78848 0.75225L6.43048 5.53025L1.15747 6.29625C0.050475 6.45625 -0.392525 7.81825 0.409475 8.59925L4.22447 12.3182L3.32447 17.5683C3.13447 18.6723 4.29247 19.5133 5.28347 18.9923L9.24148 16.9112C9.09828 16.3996 9.01835 15.8723 9.00348 15.3412L4.85348 17.5233L5.71648 12.4932C5.75335 12.2777 5.7373 12.0564 5.66972 11.8484C5.60213 11.6404 5.48502 11.452 5.32847 11.2992L1.67447 7.73725L6.72447 7.00325C7.16447 6.93925 7.54447 6.66325 7.74047 6.26425L9.99848 1.68925L12.2575 6.26425C12.3542 6.46056 12.4973 6.6304 12.6743 6.75914C12.8513 6.88788 13.0569 6.97165 13.2735 7.00325L18.3235 7.73725L17.1665 8.86525C17.7025 9.00725 18.2105 9.21525 18.6835 9.48125L19.5885 8.59925C20.3885 7.81825 19.9475 6.45725 18.8405 6.29625L13.5675 5.53025L11.2095 0.75225ZM21.0005 15.1493C21.0005 16.6079 20.421 18.0069 19.3896 19.0383C18.3581 20.0698 16.9592 20.6493 15.5005 20.6493C14.0418 20.6493 12.6428 20.0698 11.6114 19.0383C10.5799 18.0069 10.0005 16.6079 10.0005 15.1493C10.0005 13.6906 10.5799 12.2916 11.6114 11.2602C12.6428 10.2287 14.0418 9.64925 15.5005 9.64925C16.9592 9.64925 18.3581 10.2287 19.3896 11.2602C20.421 12.2916 21.0005 13.6906 21.0005 15.1493ZM18.8545 12.7952C18.808 12.7487 18.7529 12.7117 18.6921 12.6865C18.6314 12.6613 18.5662 12.6484 18.5005 12.6484C18.4347 12.6484 18.3696 12.6613 18.3088 12.6865C18.2481 12.7117 18.1929 12.7487 18.1465 12.7952L14.5005 16.4422L12.8545 14.7952C12.7606 14.7014 12.6333 14.6486 12.5005 14.6486C12.3677 14.6486 12.2404 14.7014 12.1465 14.7952C12.0526 14.8891 11.9998 15.0165 11.9998 15.1493C11.9998 15.282 12.0526 15.4094 12.1465 15.5033L14.1465 17.5033C14.1929 17.5498 14.2481 17.5868 14.3088 17.612C14.3696 17.6372 14.4347 17.6501 14.5005 17.6501C14.5662 17.6501 14.6314 17.6372 14.6921 17.612C14.7529 17.5868 14.808 17.5498 14.8545 17.5033L18.8545 13.5033C18.901 13.4568 18.938 13.4016 18.9632 13.3409C18.9884 13.2801 19.0014 13.215 19.0014 13.1493C19.0014 13.0835 18.9884 13.0184 18.9632 12.9576C18.938 12.8969 18.901 12.8417 18.8545 12.7952Z" fill="white"/>
</svg>
