<svg width="34" height="34" viewBox="0 0 34 34" fill="none" xmlns="http://www.w3.org/2000/svg">
<path d="M17 0.333252C26.205 0.333252 33.6667 7.79492 33.6667 16.9999C33.6667 26.2049 26.205 33.6666 17 33.6666C7.795 33.6666 0.333336 26.2049 0.333336 16.9999C0.333336 7.79492 7.795 0.333252 17 0.333252ZM17 23.6666C16.558 23.6666 16.1341 23.8422 15.8215 24.1547C15.5089 24.4673 15.3333 24.8912 15.3333 25.3333C15.3333 25.7753 15.5089 26.1992 15.8215 26.5118C16.1341 26.8243 16.558 26.9999 17 26.9999C17.442 26.9999 17.866 26.8243 18.1785 26.5118C18.4911 26.1992 18.6667 25.7753 18.6667 25.3333C18.6667 24.8912 18.4911 24.4673 18.1785 24.1547C17.866 23.8422 17.442 23.6666 17 23.6666ZM17 7.83325C15.3977 7.83325 13.8609 8.46978 12.7279 9.60282C11.5949 10.7358 10.9583 12.2726 10.9583 13.8749C10.9583 14.3169 11.1339 14.7409 11.4465 15.0534C11.7591 15.366 12.183 15.5416 12.625 15.5416C13.067 15.5416 13.491 15.366 13.8035 15.0534C14.1161 14.7409 14.2917 14.3169 14.2917 13.8749C14.2922 13.3833 14.4266 12.9011 14.6803 12.4801C14.934 12.059 15.2976 11.7149 15.732 11.4848C16.1664 11.2546 16.6553 11.147 17.1462 11.1736C17.637 11.2001 18.1115 11.3597 18.5185 11.6354C18.9256 11.911 19.25 12.2922 19.4568 12.7382C19.6637 13.1842 19.7453 13.678 19.6929 14.1668C19.6405 14.6556 19.456 15.1209 19.1592 15.5129C18.8624 15.9048 18.4646 16.2086 18.0083 16.3916C16.8817 16.8416 15.3333 17.9949 15.3333 19.9166V20.3333C15.3333 20.7753 15.5089 21.1992 15.8215 21.5118C16.1341 21.8243 16.558 21.9999 17 21.9999C17.442 21.9999 17.866 21.8243 18.1785 21.5118C18.4911 21.1992 18.6667 20.7753 18.6667 20.3333C18.6667 19.9266 18.75 19.7233 19.1017 19.5499L19.2467 19.4833C20.548 18.9597 21.6267 17.9998 22.2979 16.7681C22.969 15.5364 23.1908 14.1096 22.9252 12.7322C22.6596 11.3549 21.9231 10.1129 20.8421 9.21904C19.761 8.32522 18.4027 7.83529 17 7.83325Z" fill="#221F50"/>
</svg>
