<svg width="33" height="30" viewBox="0 0 33 30" fill="none" xmlns="http://www.w3.org/2000/svg">
<path fill-rule="evenodd" clip-rule="evenodd" d="M3.63459 29.1661H29.3654C31.9984 29.1661 33.6417 26.3154 32.3218 24.0379L19.4564 1.81627C18.1416 -0.457961 14.8583 -0.457961 13.5434 1.81627L0.678035 24.0379C-0.641673 26.3153 1.00155 29.1661 3.6345 29.1661H3.63459ZM18.6348 23.6151C18.6348 24.7939 17.6787 25.75 16.5 25.75C15.3212 25.75 14.3651 24.7939 14.3651 23.6151C14.3651 22.4348 15.3212 21.4787 16.5 21.4787C17.6787 21.4787 18.6348 22.4348 18.6348 23.6151ZM18.2088 10.375C18.2088 9.43169 17.4433 8.66614 16.4999 8.66614C15.5566 8.66614 14.7911 9.43169 14.7911 10.375V17.2089C14.7911 18.1522 15.5566 18.9162 16.4999 18.9162C17.4433 18.9162 18.2088 18.1522 18.2088 17.2089V10.375Z" fill="#FFBC11"/>
</svg>
