<svg width="16" height="14" viewBox="0 0 16 14" fill="none" xmlns="http://www.w3.org/2000/svg">
<path d="M0 14L8 0L16 14H0ZM8 11.914C8.15074 11.914 8.27702 11.8624 8.37886 11.7591C8.48069 11.6559 8.53132 11.5278 8.53074 11.375C8.53017 11.2222 8.47925 11.0944 8.37799 10.9918C8.27674 10.8891 8.15074 10.8372 8 10.836C7.84926 10.8348 7.72327 10.8865 7.62201 10.9909C7.52075 11.0953 7.46983 11.2233 7.46926 11.375C7.46868 11.5267 7.5196 11.6547 7.62201 11.7591C7.72442 11.8635 7.85041 11.9152 8 11.914ZM7.5685 9.96187H8.4315V5.58687H7.5685V9.96187Z" fill="#FF1414"/>
</svg>
